#N canvas 0 23 1280 751 10;
#X obj 51 107 readsf~;
#X obj 129 88 bang;
#X obj 196 273 dac~;
#X obj 198 201 *~ 1;
#X obj 359 7 loadbang;
#X msg 111 63 open ../loops/ding.wav \, 1;
#X msg 363 82 \; pd dsp 1;
#X obj 363 45 delay 100;
#X obj 535 135 oscparse;
#X msg 535 93 listen 57120;
#X obj 535 113 netreceive -u -b;
#X obj 535 155 list split 2;
#X obj 535 175 unpack s f;
#X connect 0 0 3 0;
#X connect 0 1 1 0;
#X connect 1 0 5 0;
#X connect 3 0 2 0;
#X connect 3 0 2 1;
#X connect 4 0 5 0;
#X connect 4 0 7 0;
#X connect 5 0 0 0;
#X connect 7 0 6 0;
#X connect 7 0 9 0;
#X connect 8 0 11 0;
#X connect 9 0 10 0;
#X connect 10 0 8 0;
#X connect 11 0 12 0;
#X connect 12 1 3 1;
