#N canvas 0 23 450 300 10;
#X obj 86 110 readsf~;
#X obj 126 137 bang;
#X obj 139 238 dac~;
#X floatatom 165 127 5 0 0 0 - - -;
#X obj 129 169 *~ 1;
#X obj 251 145 loadbang;
#X obj 249 183 tgl 15 0 empty empty empty 17 7 0 10 -262144 -1 -1 1
1;
#X msg 176 63 open ../loops/ding.wav \, 1;
#X connect 0 0 4 0;
#X connect 0 1 1 0;
#X connect 1 0 7 0;
#X connect 3 0 4 1;
#X connect 4 0 2 0;
#X connect 4 0 2 1;
#X connect 5 0 6 0;
#X connect 5 0 7 0;
#X connect 6 0 2 0;
#X connect 7 0 0 0;
