#N canvas 0 23 450 300 10;
#X obj 86 110 readsf~;
#X obj 126 137 bang;
#X obj 139 238 dac~;
#X floatatom 165 127 5 0 0 0 - - -;
#X obj 129 169 *~ 1;
#X msg 176 63 open ding.wav \, 1;
#X connect 0 0 4 0;
#X connect 0 1 1 0;
#X connect 1 0 5 0;
#X connect 3 0 4 1;
#X connect 4 0 2 0;
#X connect 4 0 2 1;
#X connect 5 0 0 0;
